<?xml version="1.0" standalone="no"?>
<!DOCTYPE svg PUBLIC "-//W3C//DTD SVG 20010904//EN"
 "http://www.w3.org/TR/2001/REC-SVG-20010904/DTD/svg10.dtd">
<svg version="1.0" xmlns="http://www.w3.org/2000/svg"
 width="1280.000000pt" height="1260.000000pt" viewBox="0 0 1280.000000 1260.000000"
 preserveAspectRatio="xMidYMid meet">
<metadata>
Created by potrace 1.15, written by Peter Selinger 2001-2017
</metadata>
<g transform="translate(0.000000,1260.000000) scale(0.100000,-0.100000)"
fill="#f44336" stroke="none">
<path d="M2325 12585 c-116 -22 -218 -63 -315 -128 -63 -41 -1442 -1418 -1495
-1492 -99 -139 -144 -269 -152 -446 -9 -183 32 -340 129 -491 29 -46 506 -529
1761 -1785 l1722 -1723 -1721 -1722 c-1872 -1874 -1777 -1774 -1843 -1954 -64
-174 -68 -376 -12 -544 66 -197 51 -180 821 -953 382 -384 724 -721 760 -748
82 -62 183 -112 285 -141 113 -32 306 -32 417 0 96 27 172 61 245 108 38 25
644 623 1786 1763 l1727 1726 1728 -1726 c950 -950 1749 -1741 1775 -1759 180
-120 411 -165 621 -122 103 22 225 73 314 133 55 37 1390 1365 1462 1454 230
287 246 667 42 985 -22 35 -661 681 -1756 1778 l-1721 1722 1721 1723 c947
947 1735 1742 1751 1767 149 224 187 489 103 737 -59 177 -44 160 -849 963
-762 762 -772 770 -909 826 -268 108 -574 73 -806 -93 -28 -20 -822 -806
-1764 -1747 l-1712 -1711 -1713 1711 c-941 941 -1735 1727 -1763 1747 -180
128 -424 183 -639 142z"/>
</g>
</svg>
