<svg width="150" height="100" xmlns="http://www.w3.org/2000/svg">
  <g transform="translate(-31.095 -51.028)">
    <rect width="150" height="100" x="31.095" y="51.028" rx="1.314" fill="#c6d0d0"/>
    <g fill="#607d8b">
      <path d="M98.65 66.423c10.18.056 16.07.155 16.931.269 10.056 1.217 16.808 5.052 19.783 11.195 1.827 3.764 1.93 7.741.308 12.327-.944 2.647-2.134 4.02-5.807 6.595-2.258 1.585-4.166 2.633-6.116 3.355l-1.252.467.698.24c2.155.765 4.145 2.279 8.496 6.468 4.187 4.048 5.808 5.166 7.757 5.336l.862.085.062.82c.144 1.784-.883 3.355-3.427 5.209l-1.498 1.118h1.6c2.997 0 5.336.665 7.49 2.123 2.402 1.614 3.366 3.44 3.223 6.086-.103 1.967-.616 2.746-2.668 4.16-2.175 1.459-4.33 2.265-7.922 2.945-1.334.254-2.175.311-5.274.311-3.57.014-3.776 0-6.156-.453-2.648-.51-5.52-1.373-7.43-2.25-3.488-1.6-6.936-4.685-9.932-8.902-1.19-1.67-1.252-1.727-1.99-1.826-2.73-.34-5.5-2.562-6.301-5.067-.267-.82-.287-.594-.226 3.085.041 3.553.103 4.048.493 4.855.862 1.811 1.744 2.321 4.248 2.434l1.642.071.061 1.868.062 1.854-2.032 1.968-2.011 1.953H69.099l-.062-1.614-.062-1.627 2.176-2.237 2.155-2.236h.8c.492 0 .903-.085 1.067-.24.246-.184.287-2.152.349-11.238l.062-10.997-1.15-.24c-2.278-.453-3.858-2.194-3.878-4.289l-.02-.92.984-.198c1.847-.368 3.325-1.783 3.817-3.651.144-.51.226-3.114.226-6.709 0-11.082-.616-13.658-3.9-16.149-.45-.34-.82-.65-.82-.679 0-.028.164-.226.39-.424.554-.538 2.237-2.874 3.017-4.204l.677-1.132 4.063-.014c2.237 0 11.082.042 19.66.099zM75.932 67.98c-.39.764-2.031 3.014-2.544 3.481l-.493.453.985.892c1.662 1.528 2.483 3.1 2.935 5.562.123.722.267 4.685.328 9.058.082 6.652.041 7.94-.226 8.817-.595 1.982-1.908 3.397-3.735 3.991-1.087.368-1.17.708-.369 1.812.595.82 1.93 1.529 3.14 1.67.41.042.862.1.985.127.349.085.39 22.037.041 23.126-.267.85-1.047 1.387-2.196 1.515-.718.07-.882.198-2.565 1.995-1.683 1.798-1.786 1.94-1.786 2.675v.765l15.536-.029 15.514-.042 1.724-1.628 1.704-1.627v-2.01l-1.232-.085c-2.852-.212-4.166-1.033-5.028-3.142-.39-.962-.656-7.444-.697-16.885l-.02-5.123h.882c2.996 0 6.608 2.01 8.044 4.5 1.19 2.025 1.17 4.898-.02 6.412-.8.99-2.75 2.208-3.9 2.42-.84.156-.923.213-.8.538.226.637 1.108 1.77 1.868 2.378.944.764 1.744 1.061 3.14 1.16.677.043 1.17.156 1.272.283.082.114.82 1.16 1.621 2.336 1.99 2.887 3.694 4.6 6.465 6.51 3.386 2.321 6.936 3.609 11.164 4.048 2.4.24 7.018.085 9.255-.297 3.94-.666 7.368-2.28 8.517-3.977.698-1.048.698-2.52 0-4.048-.883-1.94-2.134-2.972-4.618-3.78-1.21-.395-1.518-.438-3.283-.438-1.704 0-2.073.057-2.976.382-.575.198-1.334.595-1.703.864-.575.41-.719.65-.842 1.358-.205 1.232-.513 1.373-1.046.496-.35-.538-.41-.85-.308-1.387.287-1.5 1.026-2.35 4.412-4.968 1.765-1.359 2.36-2.01 2.853-3.015.246-.48.43-.92.43-.99 0-.071-.39-.24-.882-.368-1.621-.425-2.565-1.062-5.397-3.666-1.54-1.415-2.935-2.675-3.099-2.788-.164-.113.472.68 1.416 1.755 1.93 2.236 4.228 4.048 6.054 4.798l1.129.453-.103.679c-.102.85-.923 1.585-2.298 2.08-1.314.453-4.371.58-6.095.227-2.196-.439-3.858-1.472-4.166-2.576-.185-.693.061-.82 1.108-.623.657.114.944.114 1.17-.014.43-.24.349-.792-.165-1.033-1.067-.51-2.319-.113-2.626.82-.37 1.176.39 2.492 2.072 3.54 1.375.848 2.75 1.146 4.823 1.018.841-.056 1.54-.042 1.6.029.062.07-.163.382-.512.679-2.689 2.32-3.243 6.057-1.293 8.704 1.272 1.755 3.263 2.675 5.746 2.675 3.202 0 5.233-1.514 4.946-3.68-.308-2.35-3.653-4.175-6.198-3.368-.698.212-1.334 1.075-1.313 1.769v.538l.246-.482c.37-.75 1.17-1.075 2.565-1.061 1.58.014 2.566.269 3.304.835.698.552.944 1.245.76 2.08-.288 1.203-1.211 1.784-3.058 1.911-1.457.1-2.586-.141-3.653-.792-3.366-2.038-2.77-5.52 1.088-6.313.574-.113 1.334-.212 1.682-.212 1.047 0 3.243.41 4.125.778 1.888.75 3.366 2.307 3.818 3.977.8 3-1.786 5.534-6.896 6.723-1.272.297-1.806.34-4.515.34-3.263-.014-4.371-.142-7.08-.878-4.515-1.231-8.024-3.623-11.04-7.543-1.047-1.373-3.325-5.18-3.325-5.577 0-.184.266-.226 1.334-.226 1.6 0 2.257-.198 3.263-1.005.985-.792 1.416-1.755 1.313-2.901-.103-1.147-.595-1.67-1.662-1.727-.719-.042-.76-.014-.76.354 0 .51.329.75 1.047.75.78 0 .841.127.472 1.005-.944 2.236-3.386 3.382-6.834 3.213-1.457-.071-2.688-.425-3.448-.991-.513-.382-1.313-1.529-1.17-1.698.062-.057.473-.156.924-.199 1.745-.198 3.612-1.528 4.084-2.901.205-.552.205-1.118.02-2.49-.512-3.667-1.908-6.186-4.412-7.912-1.867-1.288-3.324-1.784-5.5-1.869-.862-.028-1.99-.014-2.503.029l-.944.099v10.473c0 6.539.082 10.983.225 11.846.41 2.533 1.601 4.317 3.346 4.94.348.127 1.23.268 1.97.31l1.334.086v1.981l-14.94.043-14.94.028.06-1.02.062-1.032 1.252-.1c2.38-.183 3.715-.792 4.392-2.066 1.006-1.825 1.026-2.18 1.026-13.587 0-5.901.082-10.784.164-10.87.082-.098.554-.24 1.068-.339 3.037-.552 4.33-2.066 4.289-5.08 0-.822-.082-1.628-.185-1.784-.123-.184-.164.382-.144 1.486.02 1.996-.205 2.675-1.128 3.453-1.93 1.614-5.931 1.954-7.778.666-.74-.51-1.211-1.288-1.211-2.01 0-.34.123-.396 1.334-.623.923-.17 1.58-.396 2.155-.764 1.416-.878 1.436-1.076 1.436-9.766 0-12.341-.492-14.889-3.55-18.03-1.17-1.204-1.211-1.289-.862-1.458.308-.17 2.894-.199 14.14-.199 14.345.015 19.475.114 22.595.496 2.79.325 5.91 1.005 8.229 1.755 6.752 2.222 10.528 5.534 12.108 10.629.39 1.288.513 4.783.246 7.005-.102.85-.082.991.062.567.102-.312.246-1.741.308-3.185.102-2.052.061-2.901-.206-3.906-1.539-6.157-6.649-10.204-15.412-12.214-2.134-.496-5.397-.963-7.9-1.132-.965-.071-9.215-.128-18.327-.142l-16.582-.014zm23.416 4.033-.739.085-.143 5.619c-.062 3.085-.144 8.534-.164 12.115l-.021 6.51 4.063.043c3.571.028 4.228 0 5.644-.27 4.269-.792 7.573-3.268 9.153-6.85.533-1.174.574-1.457.574-3.679 0-2.038-.061-2.604-.472-3.75-1.046-2.973-2.565-4.898-5.335-6.794-2.75-1.897-5.049-2.69-8.435-2.972-1.744-.142-3.201-.156-4.125-.057zm34.56 17.21c.061.1.102.029.102-.17 0-.198-.041-.268-.103-.184a.523.523 0 0 0 0 .354zm-3.1 4.614c-.266.255-.43.453-.369.453.185 0 1.683-1.585 2.32-2.477 1.148-1.57.902-1.57-.288 0-.657.864-1.396 1.77-1.662 2.024zm-4.863 3.312c-2.73 1.359-6.772 2.533-10.466 3.029-1.417.198-1.724.269-1.334.354 4.945.976 7.654 1.783 9.583 2.802 1.52.807 1.355.495-.266-.538-1.54-.976-3.263-1.613-4.905-1.854-1.519-.212-1.457-.467.246-.85 2.976-.678 7.327-2.575 9.4-4.118l.82-.608-1.026.622a35.98 35.98 0 0 1-2.052 1.161zm-37.617 2.944c-.041.184.308.226 2.319.269 2.278.028 2.36.028 2.36-.27 0-.282-.082-.296-2.299-.254-1.888.028-2.319.085-2.38.255zm-2.299 2.689c0 .269.144.283 3.694.283 2.935 0 3.694-.042 3.694-.184 0-.113-.061-.24-.143-.283-.062-.057-1.724-.1-3.694-.1-3.407 0-3.55.015-3.55.284zm13.606 5.194c.083 1.755.144 4.232.144 5.491v2.293l1.026-.113c1.273-.141 2.135-.495 3.284-1.344 1.067-.793 1.436-1.416 1.662-2.675.349-2.11-.472-3.963-2.237-5.039-1.067-.65-3.53-1.826-3.817-1.826-.123 0-.144 1.288-.062 3.213zm-13.606-2.434c0 .184.554.212 3.694.212 3.14 0 3.694-.028 3.694-.212s-.554-.213-3.694-.213c-3.14 0-3.694.029-3.694.213zm0 2.689c0 .184.554.212 3.694.212 3.14 0 3.694-.028 3.694-.212s-.554-.212-3.694-.212c-3.14 0-3.694.028-3.694.212zm0 2.618c0 .27.144.283 3.694.283s3.694-.014 3.694-.283c0-.269-.143-.283-3.694-.283-3.55 0-3.694.014-3.694.283zm0 2.76c0 .184.554.212 3.694.212 3.14 0 3.694-.028 3.694-.212s-.554-.212-3.694-.212c-3.14 0-3.694.028-3.694.212zm0 2.69c0 .183.554.211 3.694.211 3.14 0 3.694-.028 3.694-.212s-.554-.212-3.694-.212c-3.14 0-3.694.028-3.694.212zm33.903 1.867c-.062.142.37.184 1.683.184 1.457 0 1.765-.042 1.765-.212 0-.184-.288-.212-1.683-.184-1.108.028-1.704.1-1.765.212zm-33.903.892c0 .283.103.283 3.633.255 3.283-.043 3.653-.071 3.714-.298.062-.226-.226-.24-3.632-.24-3.592 0-3.715.014-3.715.283zm31.4 1.203c0 .184.697.212 5.027.212s5.028-.028 5.028-.212-.698-.212-5.028-.212-5.028.028-5.028.212zm-31.4 1.557c0 .184.554.212 3.694.212 3.14 0 3.694-.028 3.694-.212s-.554-.213-3.694-.213c-3.14 0-3.694.029-3.694.213zm32.261.948c.082.142 1.129.184 4.371.184 3.243 0 4.29-.042 4.351-.184.082-.127-.882-.17-4.35-.17-3.469 0-4.434.043-4.372.17zm-32.466 1.74c0 .185.554.213 3.797.213 3.242 0 3.796-.028 3.796-.212s-.554-.212-3.796-.212c-3.243 0-3.797.028-3.797.212zm34.888.78c.205.268.43.282 3.283.282 2.935 0 3.079-.014 3.079-.283 0-.269-.144-.283-3.284-.283-3.243 0-3.284 0-3.078.283zm-35.873 1.938c-.062.142.965.184 4.659.184 4.33 0 5.007-.042 4.596-.34-.082-.042-2.175-.07-4.658-.056-3.386.028-4.515.085-4.597.212zm38.582.637c.061.128.738.198 2.175.227 1.765.028 2.093 0 2.093-.184 0-.17-.349-.213-2.175-.213-1.642 0-2.155.043-2.093.17zm3.653 2.166c.266.226 1.847.297 1.847.099 0-.241-.288-.312-1.19-.312-.78 0-.883.029-.657.213zm3.694 1.542c0 .029.164.142.348.24.329.185.35.17.082-.056-.266-.226-.43-.297-.43-.184z"/>
      <path d="M101.934 72.792c2.442.283 4.063.877 5.767 2.137 2.113 1.57 3.796 4.203 4.515 7.105.513 1.981.307 5.505-.39 7.36-1.663 4.302-5.172 6.326-10.59 6.127-1.088-.028-2.134-.113-2.319-.17-.349-.098-.37-.622-.267-8.972.144-11.195.226-13.474.575-13.63.308-.127 1.334-.113 2.709.043zm-1.355 11.265c-.143 7.855-.123 10.035.083 10.134.123.057.861.085 1.62.043 4.516-.227 7.184-2.718 7.984-7.46.78-4.726-1.683-9.92-5.562-11.718-.985-.467-3.673-1.203-3.878-1.076-.041.043-.164 4.572-.247 10.077z"/>
    </g>
  </g>
</svg>
